# xmcd
# Track frame offsets:
# 150
# 13438
# 24578
# 44144
# 65312
# 78811
# 92763
# 111264
# 127330
# 143845
# 166943
# 182947
# 199652
# 218533
# 237315
# 254904
# 271104
# 287281
# 307227
# 321456
#
# Disc length: 4536 seconds
# Revision: 0
# Processed by: cddbd v1.5.1PL0 Copyright (c) Steve Scherf et al.
# Submitted via: VisiTrax 2.9.9.209 - For more info visit www.synapsa.com
#
DISCID=3311b614
DTITLE=Various Artist - Polo Dance vol.1
DYEAR=2003
DGENRE=
TTITLE0=Boys - Wolnosc
TTITLE1=Clasic - Jolka
TTITLE2=Imperium - Zolte Tulipany
TTITLE3=Milano - Jasnowlosa
TTITLE4=Akcent - Zycie to sa chwile
TTITLE5=Kolor - Niech zyje zycie
TTITLE6=Skaner - Nadzieja
TTITLE7=Justyna i Piotr - Wakacyjna milosc
TTITLE8=Kozacy - Ile jablek na jabloni
TTITLE9=Janusz Laskowski - Swiat nie wierzy
TTITLE10=Duet - Zatanczmy w noc
TTITLE11=Akcent - Mila ma
TTITLE12=Mister Dex - Ech,zycie,zycie
TTITLE13=Lukash - Chcialbym powiedziec
TTITLE14=Boys - Ty juz nie wrocisz
TTITLE15=Toples - Nie boj sie kochac
TTITLE16=Mega Dance - Ewa odeszla
TTITLE17=Twins - Letnia noc
TTITLE18=Imperium - Nie wiedzialem
TTITLE19=Toples - Cialo do ciala
EXTD=
EXTT0=
EXTT1=
EXTT2=
EXTT3=
EXTT4=
EXTT5=
EXTT6=
EXTT7=
EXTT8=
EXTT9=
EXTT10=
EXTT11=
EXTT12=
EXTT13=
EXTT14=
EXTT15=
EXTT16=
EXTT17=
EXTT18=
EXTT19=
PLAYORDER=
